<svg xmlns="http://www.w3.org/2000/svg" viewBox="0 0 512 512" width="512" height="512">
  <defs>
    <clipPath id="sq8">
      <rect x="32" y="32" width="448" height="448" rx="96" ry="96"/>
    </clipPath>
    <linearGradient id="g8" x1="0" y1="0" x2="1" y2="1">
      <stop offset="0%" stop-color="#5CECC6"/>
      <stop offset="50%" stop-color="#9B7BEA"/>
      <stop offset="100%" stop-color="#F47C7C"/>
    </linearGradient>
  </defs>
  <rect width="512" height="512" fill="black"/>
  <g clip-path="url(#sq8)">
    <rect x="32" y="32" width="448" height="448" rx="96" fill="#1a1a2e"/>
    <!-- Spiral -->
    <path d="M256,256 
      C256,220 290,190 320,200 
      C360,214 370,260 350,290 
      C325,330 270,345 235,320 
      C190,290 175,230 205,190 
      C240,140 310,125 355,160 
      C410,200 425,285 385,340 
      C340,400 245,420 185,370 
      C120,315 100,210 155,145 
      C215,75 335,55 405,115 
      C465,170 475,290 420,370" 
      fill="none" stroke="url(#g8)" stroke-width="28" stroke-linecap="round" opacity="0.8"/>
  </g>
</svg>
