<svg xmlns="http://www.w3.org/2000/svg" viewBox="0 0 512 512" width="512" height="512">
  <defs>
    <clipPath id="sq10">
      <rect x="32" y="32" width="448" height="448" rx="96" ry="96"/>
    </clipPath>
  </defs>
  <rect width="512" height="512" fill="black"/>
  <g clip-path="url(#sq10)">
    <rect x="32" y="32" width="448" height="448" rx="96" fill="#1a1a2e"/>
    <!-- Flower petals arranged radially -->
    <ellipse cx="256" cy="160" rx="45" ry="90" fill="#5CECC6" opacity="0.7" transform="rotate(0 256 256)"/>
    <ellipse cx="256" cy="160" rx="45" ry="90" fill="#9B7BEA" opacity="0.65" transform="rotate(60 256 256)"/>
    <ellipse cx="256" cy="160" rx="45" ry="90" fill="#F47C7C" opacity="0.65" transform="rotate(120 256 256)"/>
    <ellipse cx="256" cy="160" rx="45" ry="90" fill="#5CECC6" opacity="0.6" transform="rotate(180 256 256)"/>
    <ellipse cx="256" cy="160" rx="45" ry="90" fill="#9B7BEA" opacity="0.6" transform="rotate(240 256 256)"/>
    <ellipse cx="256" cy="160" rx="45" ry="90" fill="#F47C7C" opacity="0.6" transform="rotate(300 256 256)"/>
    <circle cx="256" cy="256" r="28" fill="#fff" opacity="0.3"/>
  </g>
</svg>
