<svg xmlns="http://www.w3.org/2000/svg" viewBox="0 0 512 512" width="512" height="512">
  <defs>
    <clipPath id="sq4">
      <rect x="32" y="32" width="448" height="448" rx="96" ry="96"/>
    </clipPath>
    <linearGradient id="g4a" x1="0" y1="0" x2="1" y2="1">
      <stop offset="0%" stop-color="#5CECC6"/>
      <stop offset="50%" stop-color="#9B7BEA"/>
      <stop offset="100%" stop-color="#F47C7C"/>
    </linearGradient>
  </defs>
  <rect width="512" height="512" fill="black"/>
  <g clip-path="url(#sq4)">
    <rect x="32" y="32" width="448" height="448" rx="96" fill="#1a1a2e"/>
    <path d="M60,400 C120,100 200,350 256,180 C312,10 380,300 460,120" stroke="#5CECC6" stroke-width="40" fill="none" stroke-linecap="round" opacity="0.8"/>
    <path d="M60,440 C140,180 220,400 280,240 C340,80 400,340 460,200" stroke="#9B7BEA" stroke-width="36" fill="none" stroke-linecap="round" opacity="0.7"/>
    <path d="M60,470 C160,250 240,440 300,300 C360,160 420,380 460,280" stroke="#F47C7C" stroke-width="32" fill="none" stroke-linecap="round" opacity="0.7"/>
  </g>
</svg>
